<mxfile host="app.diagrams.net" modified="2023-04-17T05:33:59.896Z" agent="Mozilla/5.0 (Windows NT 10.0; Win64; x64) AppleWebKit/537.36 (KHTML, like Gecko) Chrome/112.0.0.0 Safari/537.36 Edg/112.0.1722.48" version="21.1.8" etag="Wp8avfs_e3hz0xSVIoK9" type="github">
  <diagram name="Page-1" id="hlZGDX3dck-CfocZZiVI">
    <mxGraphModel>
      <root>
        <mxCell id="0" />
        <mxCell id="1" parent="0" />
      </root>
    </mxGraphModel>
  </diagram>
</mxfile>
